<svg xmlns="http://www.w3.org/2000/svg" width="32" height="32" viewBox="0 0 24 24" fill="none" stroke-width="2" stroke-linecap="round" stroke-linejoin="round">
  <!-- Abacus base (slightly faded) -->
  <g stroke="#1F292E" opacity="0.6">
    <path d="M5 3v18" />
    <path d="M19 21v-18" />
    <path d="M5 7h14" />
    <path d="M5 15h14" />
    <path d="M8 13v4" />
    <path d="M11 13v4" />
    <path d="M16 13v4" />
    <path d="M14 5v4" />
    <path d="M11 5v4" />
    <path d="M8 5v4" />
    <path d="M3 21h18" />
  </g>
  <!-- App window overlay (positioned in bottom-right) -->
  <g transform="translate(8, 8) scale(0.7)" stroke="#1F292E">
    <rect x="3" y="5" width="18" height="14" rx="2" ry="2" fill="#F9F9F9" />
    <path d="M3 7a2 2 0 0 1 2 -2h14a2 2 0 0 1 2 2v10a2 2 0 0 1 -2 2h-14a2 2 0 0 1 -2 -2v-10" />
    <circle cx="6" cy="8" r="0.5" fill="#1F292E" />
    <circle cx="9" cy="8" r="0.5" fill="#1F292E" />
  </g>
</svg>
